<?xml version="1.0" encoding="UTF-8" standalone="no" ?>
<!DOCTYPE svg PUBLIC "-//W3C//DTD SVG 1.1//EN" "http://www.w3.org/Graphics/SVG/1.1/DTD/svg11.dtd">
<svg xmlns="http://www.w3.org/2000/svg" xmlns:xlink="http://www.w3.org/1999/xlink" version="1.1" width="640" height="480" viewBox="0 0 640 480" xml:space="preserve">
<desc>Created with Fabric.js 3.6.6</desc>
<defs>
</defs>
<g transform="matrix(1 0 0 1 199.99 258.07)"  >
<path style="stroke: rgb(255,255,255); stroke-width: 25; stroke-dasharray: none; stroke-linecap: round; stroke-dashoffset: 0; stroke-linejoin: round; stroke-miterlimit: 10; fill: none; fill-rule: nonzero; opacity: 1;"  transform=" translate(-199.99, -258.07)" d="M 188.475 182 Q 188.5 182 189 182 Q 189.5 182 190 182 Q 190.5 182 191 181.5 Q 191.5 181 191.5 180.5 Q 191.5 180 192 179 Q 192.5 178 193 176 Q 193.5 174 196 170.5 Q 198.5 167 200.5 163.5 Q 202.5 160 205 156 Q 207.5 152 208.5 150 Q 209.5 148 210.5 147 Q 211.5 146 211.5 145.5 Q 211.5 145 211.5 144.5 Q 211.5 144 211.5 144.5 Q 211.5 145 211 148 Q 210.5 151 210.5 155.5 Q 210.5 160 209.5 163.5 Q 208.5 167 208.5 169 Q 208.5 171 208.5 173 Q 208.5 175 208.5 177 Q 208.5 179 208.5 181 Q 208.5 183 208.5 184 Q 208.5 185 208.5 186 Q 208.5 187 208.5 189 Q 208.5 191 208.5 192.5 Q 208.5 194 208.5 195.5 Q 208.5 197 208.5 198 Q 208.5 199 208.5 200 Q 208.5 201 208.5 202.5 Q 208.5 204 208.5 205 Q 208.5 206 208.5 207 Q 208.5 208 208.5 209 Q 208.5 210 208.5 211 Q 208.5 212 208.5 214 Q 208.5 216 208.5 217 Q 208.5 218 208.5 219.5 Q 208.5 221 208.5 221.5 Q 208.5 222 208.5 222.5 Q 208.5 223 208.5 223.5 Q 208.5 224 208.5 225 Q 208.5 226 208.5 227 Q 208.5 228 208.5 228.5 Q 208.5 229 208.5 229.5 Q 208.5 230 208.5 231 Q 208.5 232 208.5 232.5 Q 208.5 233 208.5 234.5 Q 208.5 236 208.5 236.5 Q 208.5 237 208.5 238 Q 208.5 239 208.5 240 Q 208.5 241 208.5 241.5 Q 208.5 242 208.5 243 Q 208.5 244 208.5 245.5 Q 208.5 247 208.5 247.5 Q 208.5 248 208.5 249 Q 208.5 250 208.5 251 Q 208.5 252 208.5 253 Q 208.5 254 208.5 255 Q 208.5 256 208.5 256.5 Q 208.5 257 208.5 257.5 Q 208.5 258 208.5 259.5 Q 208.5 261 208.5 262 Q 208.5 263 208.5 264 Q 208.5 265 208.5 265.5 Q 208.5 266 208.5 267 Q 208.5 268 208.5 268.5 Q 208.5 269 208.5 269.5 Q 208.5 270 208.5 270.5 Q 208.5 271 208.5 271.5 Q 208.5 272 208.5 272.5 Q 208.5 273 208.5 274 Q 208.5 275 208.5 276 Q 208.5 277 208.5 277.5 Q 208.5 278 208.5 279 Q 208.5 280 208.5 281 Q 208.5 282 208.5 282.5 Q 208.5 283 208.5 284.5 Q 208.5 286 208.5 287 Q 208.5 288 208.5 288.5 Q 208.5 289 208.5 289.5 Q 208.5 290 208.5 291 Q 208.5 292 208.5 292.5 Q 208.5 293 208.5 293.5 Q 208.5 294 208.5 295 Q 208.5 296 208.5 296.5 Q 208.5 297 208.5 298.5 Q 208.5 300 208.5 300.5 Q 208.5 301 208.5 301.5 Q 208.5 302 208.5 303 Q 208.5 304 208.5 305.5 Q 208.5 307 208.5 308 Q 208.5 309 208.5 310 Q 208.5 311 208.5 312 Q 208.5 313 208.5 314 Q 208.5 315 208.5 316 Q 208.5 317 208.5 318 Q 208.5 319 208.5 319.5 Q 208.5 320 208.5 321 Q 208.5 322 208.5 323 Q 208.5 324 208.5 325 Q 208.5 326 208.5 327 Q 208.5 328 208.5 328.5 Q 208.5 329 208.5 330 Q 208.5 331 208.5 332 Q 208.5 333 208.5 334 Q 208.5 335 208.5 335.5 Q 208.5 336 208.5 337 Q 208.5 338 208.5 339.5 Q 208.5 341 208.5 342 Q 208.5 343 208.5 344.5 Q 208.5 346 208.5 347 Q 208.5 348 208.5 349 Q 208.5 350 208.5 350.5 Q 208.5 351 208.5 351.5 Q 208.5 352 208.5 352.5 Q 208.5 353 208.5 353.5 Q 208.5 354 208.5 354.5 Q 208.5 355 208.5 355.5 Q 208.5 356 208.5 356.5 Q 208.5 357 208.5 357.5 Q 208.5 358 208.5 358.5 Q 208.5 359 208.5 359.5 Q 208.5 360 208.5 360.5 Q 208.5 361 208.5 361.5 Q 208.5 362 208.5 362.5 Q 208.5 363 208.5 363.5 Q 208.5 364 208.5 364.5 Q 208.5 365 208.5 365.5 Q 208.5 366 208.5 366.5 Q 208.5 367 208.5 367.5 Q 208.5 368 208.5 368.5 Q 208.5 369 208.5 369.5 Q 208.5 370 208.5 370.5 Q 208.5 371 208.5 371.5 L 208.5 372.025" stroke-linecap="round" />
</g>
<g transform="matrix(1 0 0 1 231.99 168.5)"  >
<path style="stroke: rgb(255,255,255); stroke-width: 25; stroke-dasharray: none; stroke-linecap: round; stroke-dashoffset: 0; stroke-linejoin: round; stroke-miterlimit: 10; fill: none; fill-rule: nonzero; opacity: 1;"  transform=" translate(-231.99, -168.5)" d="M 234.475 248.025 Q 234.5 248 235 248 Q 235.5 248 237 247.5 Q 238.5 247 240.5 246 Q 242.5 245 244.5 244.5 Q 246.5 244 248 243.5 Q 249.5 243 251 242.5 Q 252.5 242 254.5 241 Q 256.5 240 258.5 239.5 Q 260.5 239 263.5 238 Q 266.5 237 268 236.5 Q 269.5 236 271 235.5 Q 272.5 235 274 234.5 Q 275.5 234 277 233.5 Q 278.5 233 281 232 Q 283.5 231 285 230.5 Q 286.5 230 288 229.5 Q 289.5 229 290.5 228.5 Q 291.5 228 292 227.5 Q 292.5 227 293.5 227 Q 294.5 227 296.5 226.5 Q 298.5 226 300.5 225 Q 302.5 224 304 223.5 Q 305.5 223 306.5 222.5 Q 307.5 222 308 221.5 Q 308.5 221 309.5 220.5 Q 310.5 220 312 219.5 Q 313.5 219 314 218.5 Q 314.5 218 315.5 218 Q 316.5 218 317.5 217 Q 318.5 216 319.5 215.5 Q 320.5 215 321.5 214.5 Q 322.5 214 324 213 Q 325.5 212 326.5 211 Q 327.5 210 328.5 209.5 Q 329.5 209 330 208.5 Q 330.5 208 331.5 207 Q 332.5 206 333 205.5 Q 333.5 205 334 204.5 Q 334.5 204 335 203.5 Q 335.5 203 335.5 202.5 Q 335.5 202 336 201.5 Q 336.5 201 337 200.5 Q 337.5 200 337.5 199.5 Q 337.5 199 337.5 198.5 Q 337.5 198 338 197.5 Q 338.5 197 339 196 Q 339.5 195 340 193.5 Q 340.5 192 340.5 191.5 Q 340.5 191 341 189.5 Q 341.5 188 342 187.5 Q 342.5 187 343 185.5 Q 343.5 184 343.5 183.5 Q 343.5 183 343.5 182 Q 343.5 181 344 180.5 Q 344.5 180 344.5 179.5 Q 344.5 179 344.5 178 Q 344.5 177 344.5 176 Q 344.5 175 344.5 174 Q 344.5 173 344.5 172.5 Q 344.5 172 344.5 171.5 Q 344.5 171 344.5 170 Q 344.5 169 344.5 168.5 Q 344.5 168 344.5 167 Q 344.5 166 344.5 165 Q 344.5 164 344.5 163.5 Q 344.5 163 344.5 161.5 Q 344.5 160 344.5 159 Q 344.5 158 344.5 157 Q 344.5 156 344 154.5 Q 343.5 153 343 151.5 Q 342.5 150 342 149.5 Q 341.5 149 341.5 148.5 Q 341.5 148 341 146.5 Q 340.5 145 340 145 Q 339.5 145 339.5 144.5 Q 339.5 144 339 143 Q 338.5 142 338 141.5 Q 337.5 141 337 140.5 Q 336.5 140 336 139.5 Q 335.5 139 334.5 137.5 Q 333.5 136 333 135.5 Q 332.5 135 332 135 Q 331.5 135 330.5 134 Q 329.5 133 328.5 132.5 Q 327.5 132 325.5 130.5 Q 323.5 129 322 128.5 Q 320.5 128 318.5 127 Q 316.5 126 315 125 Q 313.5 124 312 123.5 Q 310.5 123 309.5 122.5 Q 308.5 122 307.5 121.5 Q 306.5 121 306 121 Q 305.5 121 305 120.5 Q 304.5 120 303.5 120 Q 302.5 120 301.5 119.5 Q 300.5 119 299.5 118.5 Q 298.5 118 297.5 118 Q 296.5 118 295.5 117.5 Q 294.5 117 294 117 Q 293.5 117 292 117 Q 290.5 117 290 116.5 Q 289.5 116 288.5 116 Q 287.5 116 286.5 116 Q 285.5 116 284 115.5 Q 282.5 115 281 115 Q 279.5 115 278.5 114 Q 277.5 113 276.5 113 Q 275.5 113 274.5 113 Q 273.5 113 272 112.5 Q 270.5 112 270 112 Q 269.5 112 269 112 Q 268.5 112 267.5 112 Q 266.5 112 266 112 Q 265.5 112 265 112 Q 264.5 112 263.5 111.5 Q 262.5 111 262 111 Q 261.5 111 260 111 Q 258.5 111 257.5 111 Q 256.5 111 255 111 Q 253.5 111 252.5 111 Q 251.5 111 250 111 Q 248.5 111 247.5 111 Q 246.5 111 244.5 111 Q 242.5 111 241 111 Q 239.5 111 237.5 111 Q 235.5 111 233.5 111 Q 231.5 111 230 111 Q 228.5 111 226.5 111 Q 224.5 111 222 111 Q 219.5 111 217.5 111 Q 215.5 111 213 111 Q 210.5 111 208.5 111 Q 206.5 111 204.5 111 Q 202.5 111 201 111 Q 199.5 111 197.5 111 Q 195.5 111 194 111 Q 192.5 111 191 111 Q 189.5 111 188 111 Q 186.5 111 185 111 Q 183.5 111 182 111 Q 180.5 111 179 111 Q 177.5 111 176.5 111 Q 175.5 111 173.5 111 Q 171.5 111 170 111 Q 168.5 111 166.5 111 Q 164.5 111 162.5 111 Q 160.5 111 158.5 111 Q 156.5 111 155 111 Q 153.5 111 151.5 111 Q 149.5 111 148.5 111 Q 147.5 111 146 111 Q 144.5 111 142.5 110.5 Q 140.5 110 140 110 Q 139.5 110 138.5 110 Q 137.5 110 136.5 109.5 Q 135.5 109 135 109 Q 134.5 109 133.5 109 Q 132.5 109 132 108.5 Q 131.5 108 131 108 Q 130.5 108 130 107.5 Q 129.5 107 129 106.5 Q 128.5 106 128.5 105.5 Q 128.5 105 128 105 Q 127.5 105 127 104 Q 126.5 103 126 102.5 Q 125.5 102 125 101 Q 124.5 100 124.5 99.5 Q 124.5 99 124 98.5 Q 123.5 98 123.5 97.5 Q 123.5 97 123 96.5 Q 122.5 96 122.5 95.5 Q 122.5 95 122 94.5 Q 121.5 94 121.5 93.5 Q 121.5 93 121 93 Q 120.5 93 120.5 92 Q 120.5 91 120.5 90.5 Q 120.5 90 120 89.5 L 119.475 88.975" stroke-linecap="round" />
</g>
<g transform="matrix(1 0 0 1 214.5 69)"  >
<path style="stroke: rgb(255,255,255); stroke-width: 45; stroke-dasharray: none; stroke-linecap: round; stroke-dashoffset: 0; stroke-linejoin: round; stroke-miterlimit: 10; fill: none; fill-rule: nonzero; opacity: 1;"  transform=" translate(-214.5, -69)" d="M 214.455 69 L 214.545 69" stroke-linecap="round" />
</g>
<g transform="matrix(1 0 0 1 166.01 75)"  >
<path style="stroke: rgb(255,255,255); stroke-width: 30; stroke-dasharray: none; stroke-linecap: round; stroke-dashoffset: 0; stroke-linejoin: round; stroke-miterlimit: 10; fill: none; fill-rule: nonzero; opacity: 1;"  transform=" translate(-166.01, -75)" d="M 166.47 75 Q 166.5 75 166 75 L 165.53 75" stroke-linecap="round" />
</g>
<g transform="matrix(1 0 0 1 177 367)"  >
<path style="stroke: rgb(255,255,255); stroke-width: 16; stroke-dasharray: none; stroke-linecap: round; stroke-dashoffset: 0; stroke-linejoin: round; stroke-miterlimit: 10; fill: none; fill-rule: nonzero; opacity: 1;"  transform=" translate(-177, -367)" d="M 177.484 367 Q 177.5 367 177 367 L 176.516 367" stroke-linecap="round" />
</g>
<g transform="matrix(1 0 0 1 156 353)"  >
<path style="stroke: rgb(255,255,255); stroke-width: 8; stroke-dasharray: none; stroke-linecap: round; stroke-dashoffset: 0; stroke-linejoin: round; stroke-miterlimit: 10; fill: none; fill-rule: nonzero; opacity: 1;"  transform=" translate(-156, -353)" d="M 155.492 353 Q 155.5 353 156 353 L 156.508 353" stroke-linecap="round" />
</g>
</svg>